<?xml version="1.0" encoding="UTF-8" standalone="no"?>
<!DOCTYPE svg PUBLIC "-//W3C//DTD SVG 1.1//EN" "http://www.w3.org/Graphics/SVG/1.1/DTD/svg11.dtd">
<svg width="100%" height="100%" viewBox="0 0 541 734" version="1.1" xmlns="http://www.w3.org/2000/svg" xmlns:xlink="http://www.w3.org/1999/xlink" xml:space="preserve" xmlns:serif="http://www.serif.com/" style="fill-rule:evenodd;clip-rule:evenodd;stroke-linejoin:round;stroke-miterlimit:2;">
    <g transform="matrix(1,0,0,1,-249,-142)">
        <g transform="matrix(1,0,0,1,266,142)">
            <path d="M0,0L12,0L31,2L54,7L75,15L95,26L106,34L117,43L133,59L144,75L150,86L158,103L165,123L170,146L172,163L174,200L178,216L190,252L196,275L201,296L206,321L209,317L222,294L232,276L236,260L244,223L253,196L261,178L267,167L277,151L287,138L298,125L306,117L319,107L341,94L357,87L379,80L405,76L434,76L450,79L455,82L456,83L456,105L451,134L445,155L436,179L427,196L417,209L405,223L401,227L399,227L399,229L388,238L369,251L348,263L327,273L303,281L280,287L270,292L261,299L253,309L242,327L230,350L222,368L213,392L208,407L200,438L194,471L190,502L198,495L208,485L219,476L231,466L244,456L261,443L270,436L278,427L288,411L301,392L311,379L319,369L334,353L347,341L357,332L374,321L395,311L408,306L418,303L431,301L444,300L474,300L490,303L507,308L520,315L524,319L523,328L518,343L512,356L504,372L496,386L488,396L479,406L469,416L456,426L440,436L419,446L400,452L385,455L369,457L353,458L302,458L292,461L277,469L265,478L254,488L249,492L242,500L231,512L220,527L212,541L203,561L199,575L196,591L195,600L195,633L198,657L202,678L210,704L212,709L213,720L211,727L205,732L196,734L182,734L172,731L163,723L158,712L155,699L152,671L151,644L151,621L153,578L156,533L159,497L164,455L168,427L170,410L172,375L172,334L170,304L163,272L156,251L149,237L140,227L125,220L92,209L72,200L58,192L44,182L31,170L23,162L14,151L5,138L-3,123L-12,96L-16,74L-17,62L-17,15L-15,5L-9,1L0,0Z" style="fill-rule:nonzero;"/>
        </g>
    </g>
</svg>
