<?xml version="1.0" encoding="UTF-8"?>
<svg version="1.1" viewBox="0 0 1024 1024" width="1024" height="1024" xmlns="http://www.w3.org/2000/svg">
<path transform="translate(0)" d="m0 0h1024v1024h-1024z" fill="#FEFFFE"/>
<path transform="translate(266,142)" d="m0 0h12l19 2 23 5 21 8 20 11 11 8 11 9 16 16 11 16 6 11 8 17 7 20 5 23 2 17 2 37 4 16 12 36 6 23 5 21 5 25 3-4 13-23 10-18 4-16 8-37 9-27 8-18 6-11 10-16 10-13 11-13 8-8 13-10 22-13 16-7 22-7 26-4h29l16 3 5 3 1 1v22l-5 29-6 21-9 24-9 17-10 13-12 14-4 4h-2v2l-11 9-19 13-21 12-21 10-24 8-23 6-10 5-9 7-8 10-11 18-12 23-8 18-9 24-5 15-8 31-6 33-4 31 8-7 10-10 11-9 12-10 13-10 17-13 9-7 8-9 10-16 13-19 10-13 8-10 15-16 13-12 10-9 17-11 21-10 13-5 10-3 13-2 13-1h30l16 3 17 5 13 7 4 4-1 9-5 15-6 13-8 16-8 14-8 10-9 10-10 10-13 10-16 10-21 10-19 6-15 3-16 2-16 1h-51l-10 3-15 8-12 9-11 10-5 4-7 8-11 12-11 15-8 14-9 20-4 14-3 16-1 9v33l3 24 4 21 8 26 2 5 1 11-2 7-6 5-9 2h-14l-10-3-9-8-5-11-3-13-3-28-1-27v-23l2-43 3-45 3-36 5-42 4-28 2-17 2-35v-41l-2-30-7-32-7-21-7-14-9-10-15-7-33-11-20-9-14-8-14-10-13-12-8-8-9-11-9-13-8-15-9-27-4-22-1-12v-47l2-10 6-4z" fill="#81AFD4"/>
</svg>
