<svg xmlns="http://www.w3.org/2000/svg" xmlns:xlink="http://www.w3.org/1999/xlink" version="1.1" x="0px" y="0px" viewBox="0 0 16 20" style="enable-background:new 0 0 16 16;" xml:space="preserve">
  <path d="M14,4c0-1.103-0.897-2-2-2s-2,0.897-2,2c0,0.737,0.405,1.375,1,1.722V6c0,0.551-0.448,1-1,1H7.5  C6.575,7,5.716,7.282,5,7.762v-3.04C5.595,4.375,6,3.737,6,3c0-1.103-0.897-2-2-2S2,1.897,2,3c0,0.737,0.405,1.375,1,1.722v6.556  C2.405,11.625,2,12.263,2,13c0,1.103,0.897,2,2,2s2-0.897,2-2c0-0.728-0.395-1.36-0.979-1.71C5.13,10.011,6.194,9,7.5,9H10  c1.654,0,3-1.346,3-3V5.722C13.595,5.375,14,4.737,14,4z M4,2c0.551,0,1,0.449,1,1S4.551,4,4,4S3,3.551,3,3S3.449,2,4,2z M4,14  c-0.551,0-1-0.448-1-1s0.449-1,1-1s1,0.448,1,1S4.551,14,4,14z M12,5c-0.552,0-1-0.449-1-1s0.448-1,1-1s1,0.449,1,1S12.552,5,12,5z"/>
</svg>